<svg xmlns="http://www.w3.org/2000/svg" height="800" width="1200" viewBox="-37.5 -35.954 325 215.724"><path fill="#5BC4F1" d="M93.613 38.779L89.576 1.167l44.762 13.638 3.764 18.414zm76.663 66.32l3.448 21.954 43.017 7.332.959-19.719z"/><path fill="#119ED9" d="M0 50.561l53.64 93.255 120.083-16.763-.35-3.541-72.649-9.002-7.112-75.731L0 50.561"/><path fill="#007EBC" d="M173.724 127.053l-72.983-12.54-7.128-75.734 44.489-5.56 32.951 70.996z"/><path fill="#E3DE00" d="M217.681 115.859l3.581-74.616-86.924-26.438-1.258-6.075L250 0l-14.443 118.47z"/><path fill="#4FB697" d="M217.681 115.859l3.581-74.616-86.924-26.438 18.452 90.294z"/><path d="M197.309 46.482c.776 0 1.419.283 1.972.837.536.548.816 1.209.816 1.997 0 .787-.28 1.462-.816 2.013a2.64 2.64 0 01-1.972.837c-.764 0-1.431-.28-1.961-.837-.543-.551-.812-1.226-.812-2.013 0-.788.276-1.449.812-1.997.546-.554 1.197-.837 1.961-.837m3.24 2.823c0-.9-.321-1.671-.953-2.31-.627-.639-1.389-.963-2.279-.963-.887 0-1.644.324-2.274.963a3.21 3.21 0 00-.938 2.31c0 .92.318 1.691.938 2.334a3.048 3.048 0 002.274.968c.891 0 1.652-.325 2.279-.968.632-.642.953-1.42.953-2.334zm-2.385-.713c0 .285-.12.473-.364.565-.134.06-.325.084-.586.084h-.562v-1.31h.529c.345 0 .597.046.751.137.159.088.232.267.232.524zm-2.149-1.096v3.614h.636v-1.427h.482c.331 0 .562.043.689.114.221.137.326.411.326.833v.286l.025.152.013.042h.586l-.022-.052-.035-.186-.009-.268v-.257a.944.944 0 00-.194-.565c-.123-.188-.325-.312-.602-.351.219-.038.401-.093.518-.175.221-.152.345-.385.345-.716 0-.457-.178-.761-.546-.906-.207-.09-.532-.138-.976-.138h-1.236M91.628 67.043c-4.38-4.381-10.835-7.146-18.673-7.146-12.335 0-20.405 9.106-20.405 22.248 0 13.486 8.76 22.248 20.979 22.248 7.84 0 13.488-2.307 19.253-7.033v15.1c-6.344 3.805-12.911 5.072-19.828 5.072-21.441 0-35.388-14.523-35.388-35.387 0-20.98 14.522-35.392 35.388-35.392 6.917 0 13.139 1.384 18.673 4.612v15.678zm53.177 36.541v12.797h-44.378V47.907h43.689v12.795h-29.281v14.987h26.86v12.562h-26.86v15.332h29.97zm6.52-5.533c5.186 3.92 10.951 7.031 18.558 7.031 5.88 0 11.066-2.074 11.066-7.723 0-5.188-4.265-7.148-11.413-9.223-13.717-3.805-19.363-9.566-19.363-21.094 0-13.026 10.145-20.29 22.823-20.29 7.726.001 13.37 1.962 18.214 5.073v14.409c-5.42-4.379-10.951-7.031-17.751-7.031-5.881 0-9.108 2.883-9.108 7.147 0 4.843 3.918 6.802 11.873 8.993 13.718 3.918 19.02 10.027 19.02 21.555 0 14.295-11.296 20.635-25.36 20.633-7.493 0-14.18-2.072-18.558-4.955V98.051z" fill="#FFF"/></svg>